<?xml version="1.0" encoding="UTF-8"?>
<svg id="Layer_1" data-name="Layer 1" xmlns="http://www.w3.org/2000/svg" viewBox="0 0 3490 3470.87">
  <defs>
    <style>
      .cls-1 {
        fill: #015551;
      }
    </style>
  </defs>
  <path class="cls-1" d="m1733.03,3467.87s-264.69,3.9-379.24-53.13l2.92-1193.78s65.32-328.55,381.19-374.37l-4.87,1621.28Z"/>
  <path class="cls-1" d="m1873.42,3467.93v-1187.5s14.62-301.25,403.61-383.14v1497.46s-160.86,93.7-403.61,73.17Z"/>
  <g>
    <path class="cls-1" d="m3107.81,2833.01c29.01-35.52,26.44-146.52,30.71-189.68,14.82-149.96,10.55-302.63-17.59-450.82-87.1-458.55-416.39-779.99-855.94-917.9-434.54-136.33-990.51-33.95-1318.95,295.68-176.94,177.58-334.32,458.44-312.15,714.49,15.53,179.31,128.55,322.08,274.36,419.72-.35-81.43-11.48-170.64,4.11-250.47,5.76-29.5,15.64-58.13,28.75-85.15,13.27-27.34,29.83-53.06,48.9-76.72,19.22-23.85,40.99-45.63,64.74-64.97s49.17-36.04,76.26-49.93c12.11-6.21,24.52-11.83,37.19-16.79,6.16-2.41,12.72-4.85,19.13-7.01,5.62-1.89,13.11-6.66,19.19-5.47-2.2,3.22-3.22,6.28-4.15,10.09-1.81,7.4-2.72,15.05-3.53,22.61-1.19,11.1-1.94,22.24-2.55,33.38-.78,14.19-1.29,28.39-1.68,42.6-.46,16.74-.73,33.49-.91,50.24-.2,18.78-.26,37.55-.24,56.33.02,20.29.14,40.57.32,60.86.19,21.27.46,42.55.78,63.82.33,21.74.71,43.48,1.13,65.23.42,21.69.89,43.38,1.38,65.07.48,21.12,1,42.23,1.53,63.35.51,20.02,1.03,40.05,1.57,60.07.5,18.41,1,36.82,1.51,55.23.45,16.27.9,32.55,1.35,48.82.37,13.62.74,27.24,1.08,40.86.26,10.44.51,20.89.71,31.33.13,6.75.25,13.5.23,20.25v.07c-.46,146.33-1.39,292.67-1.39,439,0,0-953.46-307.1-1158.19-1228.39C-43.81,1747.11-4.03,1310.82,186.35,943.04,502.48,332.31,1235.16-65.94,1918.24,9.05c575.7,63.2,1117.36,394.74,1375.09,922.72,11.82,24.21,23.04,48.72,33.68,73.47,0,0,485.43,965.02-219.2,1827.77Z"/>
    <polyline class="cls-1" points="1188.81 2152.91 1213.65 2143.45 1210.35 3379.52 1203.65 3377.2"/>
  </g>
</svg>