<?xml version="1.0" encoding="UTF-8"?>
<svg id="Layer_1" data-name="Layer 1" xmlns="http://www.w3.org/2000/svg" viewBox="0 0 3873.24 4303.65">
  <defs>
    <style>
      .cls-1 {
        fill: #fff;
      }

      .cls-2 {
        fill: #0b666a;
      }

      .cls-3 {
        fill: #386641;
      }

      .cls-4 {
        fill: #071952;
      }

      .cls-5 {
        fill: #f97a00;
      }
    </style>
  </defs>
  <g>
    <path class="cls-4" d="m1930.59,4300.67s-304.94,20.68-434.12-46.94v-1316.54s27.53-363.48,434.12-448.01v1811.49Z"/>
    <path class="cls-4" d="m1356.35,4208.62v1.52c-222.25-90.73-439.07-206.84-605.96-379.39-166.89-172.55-279.46-408.45-262.73-647.92,10.99-157.28,77.49-308.94,179.84-428.87,113.2-132.65,285.74-226.12,444.74-293.23,39-16.46,78.24-32.31,117.66-47.73,78.84-30.82,158.38-59.84,238.1-88.29,135.55-48.38,271.71-95.12,406.21-146.37,301.73-114.97,599.95-255.81,838.17-473.78,238.22-217.97,411.71-523.49,410.77-846.38,38.17,246.93-27.39,504.17-158.88,716.63-131.5,212.47-325.66,381.91-542.46,506.11-256.2,146.78-540.71,232.19-818.3,328.04-139.17,48.05-277.7,98.89-410.95,161.79-94.02,44.39-190.81,93.31-277.05,151.63-63.75,43.11-121.49,101.96-141.13,176.38-16.14,61.16-4.86,126.49,15.66,186.32,39.11,114,113.31,217.26,214.47,282.77,4.51-231.11,148.28-454.06,356.95-553.52-1.44,392.18-2.88,784.36-4.32,1176.54-.27,72.58-.53,145.17-.8,217.75Z"/>
    <path class="cls-5" d="m391.94,3549.65c-36.53-405.03,117.51-829.4,425.55-1094.91,152.38-131.34,335.61-221.08,524.41-287.21,363.5-127.32,744.35-223.16,1095.41-382.9,159.41-72.54,313.48-164.73,429.09-296.29,151.94-172.9,226.59-401.97,256.75-630.15-40.39,175.41-139.8,333.72-265.89,462.18-126.09,128.46-278.23,228.77-436.73,314.09-190.55,102.57-392.03,184.81-599.91,244.95-204.13,59.06-405.87,111.91-600.33,200.03-87.8,39.79-173.51,84.26-256.25,133.74-169.98,101.64-325.75,231.89-436.22,396.26-182.48,271.53-227.12,626.55-135.83,940.71-.01-.16-.03-.33-.04-.49Z"/>
    <path class="cls-3" d="m2929.46,35.7c4.54,17.68,11.09,35.11,16.69,51.4,10.83,31.44,21.24,63.12,27.98,95.73,8.23,40.05,15.09,80.39,20.58,120.91,1.54,11.35,2.97,22.71,4.29,34.08,13.83,119.01,17.61,241.1,4.99,360.39-18.83,177.88-81.41,354.22-190.97,496.7-117.33,152.58-292.16,247.07-461.73,330.93-300.09,148.42-621.33,246.71-938.77,350.12-177.43,57.8-355.01,121.3-513.26,222.04-308.02,196.08-542.62,505.62-643.51,856.95-28.8,100.27-47.3,204-57.39,307.76,2.29-23.49-13.36-43.28-24.16-62.62-12.61-22.59-23.32-46.21-32.93-70.21-8.68-21.67-16.49-43.68-24.07-65.75-17.34-50.48-32.75-101.61-46.32-153.23-4.28-16.25-8.37-32.55-12.29-48.89-73.15-305.27-82.11-628.17-2.3-933.1,11.41-43.61,24.74-86.71,39.86-129.17,15.03-42.18,31.84-83.73,50.32-124.52,18.41-40.66,38.48-80.58,60.05-119.66s44.62-77.28,69.05-114.6c24.45-37.36,50.28-73.82,77.34-109.33,27.1-35.57,55.45-70.2,84.9-103.86,29.5-33.71,60.12-66.44,91.74-98.18,31.65-31.77,64.31-62.54,97.86-92.29,37.43-33.2,75.98-65.13,115.52-95.78,26.7-20.7,53.85-40.81,81.43-60.34,210.68-149.18,454.77-245.87,708.24-291.95,201.45-36.63,406.59-22.28,609.8-14.1,174.06,7.01,373.56,39.4,534.72-45.31,46.99-24.7,85.85-62.44,116.9-105.12,33.31-45.79,58.3-97.36,77.56-150.48s33.21-109.42,41.98-165.8c4.35-27.96,7.18-56.08,8.91-84.3"/>
    <path class="cls-2" d="m2046.36,2587.89s-86.12-52.24,0-155.29c0,0,700.24-304.94,940.24-663.53,0,0,279.53-355.76,271.06-714.35,0,0,1235.29,1064.47,206.12,2517.18,0,0,259.76-913.41-576-1526.12,0,0-282.35,336-841.41,542.12Z"/>
    <path class="cls-2" d="m2529.71,4224.85s-182.71,88.25-440.76,77.97l4.76-1313.85s-5.2-214.62,183.14-321.29c0,0,210.85-124.66,252.85-132.37v1689.54Z"/>
    <path class="cls-3" d="m2918.07,67.55s11.17-47.27-.94-67.55c0,0,25.81,66.18,33.99,101.62l-33.05-34.07Z"/>
    <polygon class="cls-1" points="185.98 3220.06 200.37 3247.52 200.79 3262.71 195.12 3262.71 185.98 3220.06"/>
    <polygon class="cls-3" points="173.09 3198.08 200.42 3249.14 205.37 3206.02 173.09 3198.08"/>
  </g>
  <path class="cls-3" d="m159.05,3170.69l47.82,98.58s-8.47-57.71,1.89-92.98"/>
</svg>